<svg xmlns="http://www.w3.org/2000/svg" width="30" height="30.028" viewBox="0 0 30 30.028">
  <g id="clock" transform="translate(-0.016 -0.01)">
    <g id="Layer_1" data-name="Layer 1" transform="translate(0.016 0.01)">
      <circle id="Ellipse_9237" data-name="Ellipse 9237" cx="14.434" cy="14.434" r="14.434" transform="translate(0.576 0.58)" fill="#fff"/>
      <path id="Path_25982" data-name="Path 25982" d="M29.069,10.946A12.913,12.913,0,1,1,12.184,1.66c-.258.063-.511.126-.763.2A14.434,14.434,0,1,0,29.31,11.7C29.236,11.445,29.155,11.193,29.069,10.946Z" transform="translate(-0.44 -0.713)" fill="#cfcfcf"/>
      <path id="Path_25983" data-name="Path 25983" d="M15,30.037a15.094,15.094,0,1,1,4.207-.62,15.014,15.014,0,0,1-4.207.62Zm.04-28.885A13.883,13.883,0,1,0,21.7,2.874,13.883,13.883,0,0,0,15.043,1.152Z" transform="translate(-0.016 -0.01)"/>
      <path id="Path_25984" data-name="Path 25984" d="M28.913,25.4l1.641-2.261a.694.694,0,0,0-.149-.976l-3.7-2.692V11.48a.7.7,0,0,0-.7-.7H23.214a.7.7,0,0,0-.694.7v9.757a.706.706,0,0,0,.275.574l5.165,3.73a.694.694,0,0,0,.953-.138Z" transform="translate(-9.604 -4.599)" fill="#ffc627"/>
      <path id="Path_25985" data-name="Path 25985" d="M27.919,25.832a1.245,1.245,0,0,1-.746-.241l-5.131-3.73a1.274,1.274,0,0,1-.522-1.05V11.054A1.268,1.268,0,0,1,22.788,9.78h2.795a1.274,1.274,0,0,1,1.274,1.274v7.7L30.3,21.276a1.276,1.276,0,0,1,.275,1.779l-1.641,2.261h0A1.28,1.28,0,0,1,27.919,25.832Zm.574-.855Zm-5.7-14.067a.126.126,0,0,0-.121.126v9.774a.132.132,0,0,0,.052.1l5.131,3.725a.132.132,0,0,0,.178,0l1.636-2.255a.166.166,0,0,0,0-.1.115.115,0,0,0-.052-.075l-3.7-2.692a.574.574,0,0,1-.235-.465V11.054a.126.126,0,0,0-.126-.126Z" transform="translate(-9.178 -4.173)"/>
    </g>
  </g>
</svg>
