<svg xmlns="http://www.w3.org/2000/svg" width="20.715" height="18.125" viewBox="0 0 20.715 18.125">
  <path id="hamburger_menu_icon" data-name="hamburger menu icon" d="M.74-8.8H19.974a.74.74,0,0,0,.74-.74v-1.849a.74.74,0,0,0-.74-.74H.74a.74.74,0,0,0-.74.74v1.849A.74.74,0,0,0,.74-8.8Zm0,7.4H19.974a.74.74,0,0,0,.74-.74V-3.987a.74.74,0,0,0-.74-.74H.74a.74.74,0,0,0-.74.74v1.849A.74.74,0,0,0,.74-1.4ZM.74,6H19.974a.74.74,0,0,0,.74-.74V3.411a.74.74,0,0,0-.74-.74H.74a.74.74,0,0,0-.74.74V5.26A.74.74,0,0,0,.74,6Z" transform="translate(0 12.125)" fill="#191919"/>
</svg>
