<svg xmlns="http://www.w3.org/2000/svg" width="17.844" height="17.392" viewBox="0 0 17.844 17.392">
  <path id="Icon_-_arrow-right-solid" data-name="Icon - arrow-right-solid" d="M7.587,38.815l.884-.884a.952.952,0,0,1,1.35,0l7.742,7.738a.952.952,0,0,1,0,1.35L9.821,54.761a.952.952,0,0,1-1.35,0l-.884-.884A.957.957,0,0,1,7.6,52.511l4.8-4.572H.956A.954.954,0,0,1,0,46.983V45.709a.954.954,0,0,1,.956-.956H12.4L7.6,40.181A.95.95,0,0,1,7.587,38.815Z" transform="translate(0 -37.65)" fill="#191919"/>
</svg>
