<svg xmlns="http://www.w3.org/2000/svg" width="30" height="30" viewBox="0 0 30 30">
  <g id="question" transform="translate(-164.318 -73.006)">
    <g id="Group_23735" data-name="Group 23735" transform="translate(164.318 73.006)">
      <g id="Group_23733" data-name="Group 23733" transform="translate(0.576 0.58)">
        <g id="Group_23731" data-name="Group 23731" transform="translate(0.004)">
          <circle id="Ellipse_12062" data-name="Ellipse 12062" cx="14.419" cy="14.419" r="14.419" fill="#fff"/>
        </g>
        <g id="Group_23732" data-name="Group 23732" transform="translate(0 0.374)">
          <path id="Path_256100" data-name="Path 256100" d="M193.346,83.932a12.9,12.9,0,1,1-16.867-9.272c-.254.059-.508.125-.762.2a14.42,14.42,0,1,0,17.87,9.823Q193.476,84.3,193.346,83.932Z" transform="translate(-165.316 -74.66)" fill="#cfcfcf"/>
        </g>
      </g>
      <g id="Group_23734" data-name="Group 23734">
        <path id="Path_256101" data-name="Path 256101" d="M179.295,103.006a15.044,15.044,0,1,1,4.206-.6A15.076,15.076,0,0,1,179.295,103.006Zm.044-28.853a13.91,13.91,0,0,0-3.884.556,13.767,13.767,0,1,0,3.884-.556Z" transform="translate(-164.318 -73.006)"/>
      </g>
    </g>
    <g id="Group_23738" data-name="Group 23738" transform="translate(172.145 77.873)">
      <g id="Group_23736" data-name="Group 23736">
        <path id="Path_256102" data-name="Path 256102" d="M192.087,88.133c0-3.273-3.4-5.757-6.576-5.757a7.317,7.317,0,0,0-6.578,3.6.8.8,0,0,0-.115.378.764.764,0,0,0,.268.54l1.958,1.482a.794.794,0,0,0,.41.137.768.768,0,0,0,.531-.257c1.008-1.278,1.7-2.02,3.234-2.02,1.153,0,2.579.744,2.579,1.863,0,.846-.7,1.28-1.836,1.918-1.327.745-3.084,1.671-3.084,3.988v.226a.677.677,0,0,0,.677.677h3.16a.678.678,0,0,0,.677-.677v-.076C187.392,92.546,192.087,92.478,192.087,88.133Z" transform="translate(-178.28 -81.838)" fill="#ffc627"/>
        <path id="Path_256103" data-name="Path 256103" d="M186.32,95.048h-3.16a1.216,1.216,0,0,1-1.215-1.215v-.226c0-2.576,1.885-3.632,3.261-4.4l.1-.055c1.172-.656,1.562-.958,1.562-1.449,0-.734-1.117-1.325-2.041-1.325-1.255,0-1.794.526-2.811,1.815a1.216,1.216,0,0,1-1.689.215l-1.958-1.48a1.292,1.292,0,0,1-.481-.969,1.322,1.322,0,0,1,.206-.677,7.874,7.874,0,0,1,7.025-3.836c3.365,0,7.115,2.585,7.115,6.295,0,3.013-2.08,4.215-3.457,5.01-.636.366-1.237.714-1.237,1.01v.075A1.216,1.216,0,0,1,186.32,95.048Zm-1.5-9.748c1.474,0,3.117.986,3.117,2.4,0,1.2-1.025,1.78-2.111,2.388l-.1.055c-1.27.711-2.711,1.518-2.711,3.463v.226a.139.139,0,0,0,.138.139h3.16a.14.14,0,0,0,.14-.139v-.075c0-.918.862-1.416,1.775-1.943,1.368-.79,2.92-1.685,2.92-4.077,0-2.987-3.188-5.219-6.039-5.219a6.8,6.8,0,0,0-6.13,3.359.366.366,0,0,0-.024.085.322.322,0,0,0,.06.107l1.954,1.478a.325.325,0,0,0,.091.029.339.339,0,0,0,.106-.058C182.227,86.181,183.054,85.3,184.824,85.3Z" transform="translate(-177.885 -81.443)"/>
      </g>
      <g id="Group_23737" data-name="Group 23737" transform="translate(3.721 13.997)">
        <path id="Path_256104" data-name="Path 256104" d="M190.46,109.232a2.6,2.6,0,1,0-2.6,2.6A2.6,2.6,0,0,0,190.46,109.232Z" transform="translate(-184.73 -106.098)" fill="#ffc627"/>
        <path id="Path_256105" data-name="Path 256105" d="M187.469,111.972a3.134,3.134,0,1,1,3.134-3.134h0A3.142,3.142,0,0,1,187.469,111.972Zm0-5.192a2.058,2.058,0,1,0,2.058,2.057A2.06,2.06,0,0,0,187.469,106.78Zm2.6,2.057h0Z" transform="translate(-184.335 -105.704)"/>
      </g>
    </g>
  </g>
</svg>
