<svg xmlns="http://www.w3.org/2000/svg" width="30" height="26.837" viewBox="0 0 30 26.837">
  <g id="school" transform="translate(15 13.418)">
    <g id="Group_84805" data-name="Group 84805" transform="translate(-15 -13.418)">
      <g id="Group_84804" data-name="Group 84804">
        <g id="Group_84802" data-name="Group 84802" transform="translate(0.455 0.455)">
          <rect id="Rectangle_21409" data-name="Rectangle 21409" width="6.124" height="10.107" transform="translate(22.967 13.278)" fill="#fff"/>
          <path id="Path_259248" data-name="Path 259248" d="M57.651,23.127V25.8H51.527V22.124h5.121A1,1,0,0,1,57.651,23.127Z" transform="translate(-28.56 -12.523)" fill="#d0d0d0"/>
          <path id="Path_259249" data-name="Path 259249" d="M31.316,24.385v2.543H27.724v-9.7a1,1,0,0,0-1-1H19.068a1.006,1.006,0,0,0-1,1v9.7H14.473V7.412a1.013,1.013,0,0,1,.446-.833L22.3,1.193a1.008,1.008,0,0,1,1.184,0l3.666,2.673v.005l3.717,2.709a1,1,0,0,1,.446.833V24.385ZM26.721,9.839a3.827,3.827,0,1,0-3.827,3.827A3.823,3.823,0,0,0,26.721,9.839Z" transform="translate(-8.349 -1.001)" fill="#fff"/>
          <path id="Path_259250" data-name="Path 259250" d="M46.531,2.582V8.275a1,1,0,0,0-.446-.833L42.368,4.733V2.582Z" transform="translate(-23.564 -1.863)" fill="#d0d0d0"/>
          <path id="Path_259251" data-name="Path 259251" d="M32.034,35.5v9.7h-9.66V35.5a1.006,1.006,0,0,1,1-1h7.654A1,1,0,0,1,32.034,35.5Zm-2.006,4.73V36.5H24.38v3.727Z" transform="translate(-12.659 -19.269)" fill="#ffc627"/>
          <ellipse id="Ellipse_12316" data-name="Ellipse 12316" cx="3.827" cy="3.827" rx="3.827" ry="3.827" transform="translate(10.719 5.012)" fill="#ffc627"/>
          <rect id="Rectangle_21410" data-name="Rectangle 21410" width="5.648" height="3.727" transform="translate(11.722 17.23)" fill="#fff"/>
          <rect id="Rectangle_21411" data-name="Rectangle 21411" width="6.124" height="10.107" transform="translate(0 13.278)" fill="#fff"/>
          <path id="Path_259252" data-name="Path 259252" d="M7.124,23.177V25.8H1V23.127a1.006,1.006,0,0,1,1-1H7.124Z" transform="translate(-1 -12.523)" fill="#d0d0d0"/>
        </g>
        <g id="Group_84803" data-name="Group 84803">
          <path id="Path_259253" data-name="Path 259253" d="M6.579,35.816H.455A.454.454,0,0,1,0,35.361V22.582a1.459,1.459,0,0,1,1.458-1.458H6.579a.455.455,0,1,1,0,.909H1.458a.549.549,0,0,0-.549.549V34.907H6.124V22.632a.455.455,0,0,1,.909,0v12.73A.454.454,0,0,1,6.579,35.816Z" transform="translate(0 -11.522)"/>
          <path id="Path_259254" data-name="Path 259254" d="M57.106,35.816H50.982a.454.454,0,0,1-.455-.455V22.632a.455.455,0,0,1,.909,0V34.907h5.215V22.582a.549.549,0,0,0-.549-.549H50.982a.455.455,0,1,1,0-.909H56.1a1.459,1.459,0,0,1,1.458,1.458v12.78A.454.454,0,0,1,57.106,35.816Z" transform="translate(-27.56 -11.522)"/>
          <path id="Path_259255" data-name="Path 259255" d="M13.928,11.564a.454.454,0,0,1-.455-.455V6.866a1.458,1.458,0,0,1,.647-1.21L21.489.28a1.463,1.463,0,0,1,1.719,0l3.667,2.674a.454.454,0,1,1-.536.734L22.673,1.014a.555.555,0,0,0-.65,0L14.642,6.4a.567.567,0,0,0-.26.465V11.11A.454.454,0,0,1,13.928,11.564Z" transform="translate(-7.349 0)"/>
          <path id="Path_259256" data-name="Path 259256" d="M45.986,15.009a.454.454,0,0,1-.455-.455V10.311a.548.548,0,0,0-.242-.453l-3.734-2.72a.455.455,0,0,1,.535-.735l3.716,2.709a1.437,1.437,0,0,1,.633,1.2v4.243A.454.454,0,0,1,45.986,15.009Z" transform="translate(-22.565 -3.445)"/>
          <path id="Path_259257" data-name="Path 259257" d="M27.862,19.59a4.282,4.282,0,1,1,4.281-4.282A4.286,4.286,0,0,1,27.862,19.59Zm0-7.654a3.372,3.372,0,1,0,3.372,3.372A3.376,3.376,0,0,0,27.862,11.936Z" transform="translate(-12.862 -6.015)"/>
          <path id="Path_259258" data-name="Path 259258" d="M33.6,19.74H32.455A.454.454,0,0,1,32,19.285V17.375a.455.455,0,1,1,.909,0v1.456H33.6a.455.455,0,0,1,0,.909Z" transform="translate(-17.455 -9.229)"/>
          <path id="Path_259259" data-name="Path 259259" d="M31.489,45.106a.454.454,0,0,1-.455-.455v-9.7a.549.549,0,0,0-.549-.549H22.832a.549.549,0,0,0-.549.549v9.7a.455.455,0,0,1-.909,0v-9.7a1.459,1.459,0,0,1,1.458-1.458h7.654a1.459,1.459,0,0,1,1.458,1.458v9.7A.454.454,0,0,1,31.489,45.106Z" transform="translate(-11.659 -18.269)"/>
          <path id="Path_259260" data-name="Path 259260" d="M30.77,54.9H13.928a.454.454,0,0,1-.455-.455V51.9a.455.455,0,1,1,.909,0v2.089H30.316V51.9a.455.455,0,1,1,.909,0v2.543A.454.454,0,0,1,30.77,54.9Z" transform="translate(-7.349 -28.062)"/>
          <path id="Path_259261" data-name="Path 259261" d="M6.579,30.121H.455a.455.455,0,0,1,0-.909H6.579a.455.455,0,1,1,0,.909Z" transform="translate(0 -15.934)"/>
          <path id="Path_259262" data-name="Path 259262" d="M57.106,30.121H50.982a.455.455,0,1,1,0-.909h6.124a.455.455,0,1,1,0,.909Z" transform="translate(-27.56 -15.934)"/>
          <path id="Path_259263" data-name="Path 259263" d="M31.89,42.543H26.243a.454.454,0,0,1-.455-.455V38.362a.454.454,0,0,1,.455-.455H31.89a.454.454,0,0,1,.455.455v3.727A.454.454,0,0,1,31.89,42.543ZM26.7,41.634h4.738V38.816H26.7Z" transform="translate(-14.066 -20.677)"/>
          <path id="Path_259264" data-name="Path 259264" d="M45.986,8.184a.454.454,0,0,1-.455-.455V2.491H42.278V4.183a.456.456,0,0,1-.455.457.452.452,0,0,1-.455-.452V2.037a.454.454,0,0,1,.455-.455h4.163a.454.454,0,0,1,.455.455V7.729A.454.454,0,0,1,45.986,8.184Z" transform="translate(-22.565 -0.863)"/>
        </g>
      </g>
    </g>
  </g>
</svg>
