<svg xmlns="http://www.w3.org/2000/svg" width="15.97" height="15.97" viewBox="0 0 15.97 15.97">
  <path id="times-solid" d="M11.012,87.985l4.54-4.54a1.427,1.427,0,0,0,0-2.018l-1.009-1.009a1.427,1.427,0,0,0-2.018,0l-4.54,4.54-4.54-4.54a1.427,1.427,0,0,0-2.018,0L.418,81.427a1.427,1.427,0,0,0,0,2.018l4.54,4.54-4.54,4.54a1.427,1.427,0,0,0,0,2.018l1.009,1.009a1.427,1.427,0,0,0,2.018,0l4.54-4.54,4.54,4.54a1.427,1.427,0,0,0,2.018,0l1.009-1.009a1.427,1.427,0,0,0,0-2.018Z" transform="translate(0 -80)" fill="#191919"/>
</svg>
